PathFileType	4	(X/Y/Z)	RBDS08\RBDS08runT45.trc
DataRate	CameraRate	NumFrames	NumMarkers	Units	OrigDataRate	OrigDataStartFrame	OrigNumFrames
150.000000	150.000000	6	33	mm	150.000000	2812	4500
Frame#	Time	L.ASIS			L.Heel.Bottom			L.Heel.Lateral			L.Heel.Top			L.Iliac.Crest			L.MT1			L.MT5			L.PSIS			L.Shank.Bottom.Lateral			L.Shank.Bottom.Medial			L.Shank.Top.Lateral			L.Shank.Top.Medial			L.Thigh.Bottom.Lateral			L.Thigh.Bottom.Medial			L.Thigh.Top.Lateral			L.Thigh.Top.Medial			R.ASIS			R.ASY			R.Heel.Bottom			R.Heel.Lateral			R.Heel.Top			R.Iliac.Crest			R.MT1			R.MT5			R.PSIS			R.Shank.Bottom.Lateral			R.Shank.Bottom.Medial			R.Shank.Top.Lateral			R.Shank.Top.Medial			R.Thigh.Bottom.Lateral			R.Thigh.Bottom.Medial			R.Thigh.Top.Lateral			R.Thigh.Top.Medial			
		X1	Y1	Z1	X2	Y2	Z2	X3	Y3	Z3	X4	Y4	Z4	X5	Y5	Z5	X6	Y6	Z6	X7	Y7	Z7	X8	Y8	Z8	X9	Y9	Z9	X10	Y10	Z10	X11	Y11	Z11	X12	Y12	Z12	X13	Y13	Z13	X14	Y14	Z14	X15	Y15	Z15	X16	Y16	Z16	X17	Y17	Z17	X18	Y18	Z18	X19	Y19	Z19	X20	Y20	Z20	X21	Y21	Z21	X22	Y22	Z22	X23	Y23	Z23	X24	Y24	Z24	X25	Y25	Z25	X26	Y26	Z26	X27	Y27	Z27	X28	Y28	Z28	X29	Y29	Z29	X30	Y30	Z30	X31	Y31	Z31	X32	Y32	Z32	X33	Y33	Z33	

2813	18.74666666666667	2190.135558937133	978.015411447338	919.5396982825398	2244.46053222502	26.78965233295124	994.0039709017983	2276.633240154586	45.34286322849399	951.4584801077631	2255.349578030101	75.62281186587759	999.3776758753509	2132.10779211346	1049.992016892004	877.7705179084046	2463.474751603579	69.54374396728541	1043.460408298941	2433.297649961361	47.32115384190343	937.7588795095531	2021.910487869876	1009.839230424108	974.0942833884741	2305.019410772909	151.1387699360251	941.407145261053	2265.762864531336	152.6854225461514	974.4367699976162	2293.374603389974	227.3181503707371	918.8637875617103	2255.168806897648	234.1718963807496	955.3378009723316	2248.511311196387	623.896852695564	853.405285133391	2194.28420126285	591.125171441622	889.6087976225544	2184.130927357705	713.3041712572257	841.1722229766264	2134.028906756073	683.3952081269102	878.2917060906498	2187.395156755327	945.1459429127183	1141.780978824679	2482673693.87668	-2216407675.071251	-231338336.7601119	1567.688957434435	739.2324833839282	1078.283041940291	1563.433858459245	704.9552152505961	1118.861224269969	1601.284639426814	701.995828927565	1077.20632325641	2146.97060182424	1022.483815776632	1165.332763583939	1452.208367294101	546.0189790257157	1030.230720398597	1460.574511142451	574.5880275664287	1136.309547029445	2024.20219721274	999.8444804672688	1077.265014051396	1664.217093893845	619.6116758075829	1123.565986269726	1674.078375754269	648.3575753195435	1077.922752469099	1743.465421449082	601.5390911991789	1127.81158006285	1751.195897564013	627.4561794641478	1080.567944152083	1993.16650736327	553.7390598574744	1142.245789531643	1943.973568387313	574.3376663645333	1093.027263176869	2012.392081408391	659.7575103193387	1166.747226668542	1963.14001850704	679.7910909745402	1122.527848964402	
2814	18.75333333333333	2186.821676753839	972.7112793762437	917.6535202834605	2216.272098874166	28.69169036653866	995.3970695856137	2248.90332390818	46.60706450353311	952.9145251093188	2229.763769390912	77.18057796861463	1001.870670031005	2128.324520789706	1042.770484114235	878.3818668099664	2438.506188595461	61.53843269321607	1044.074649943204	2406.242838039891	43.04519871146484	937.9388108545783	2018.469752374951	1003.813769380982	977.3599457956911	2284.829768750403	148.9126830395329	943.2717584655543	2245.4837235746	152.8532983904693	975.9808650075598	2277.297358421916	225.3337877896098	920.205528739499	2239.284981046624	234.5413179474192	956.3701095431177	2243.472371724816	620.3169948101967	853.2443571885307	2190.126509786698	587.7048209067341	890.6120675403212	2178.317108173287	709.1506921473332	841.0290861528063	2129.16341935123	679.5192384040437	879.4555710757076	2187.963585349325	938.1362745009261	1140.301880076293	2486138346.820288	-2219503408.103109	-231662324.3616132	1594.868400885928	747.2197964939641	1079.414853199307	1589.600599791476	713.3052506711833	1120.052554053379	1626.91796721715	708.7138321049205	1078.242329064849	2149.223029291086	1014.363353960341	1165.851596970447	1471.288511702312	558.8712531569927	1033.065510685334	1481.843148388378	587.4336220677473	1138.780467177536	2023.050836309934	992.7268700948312	1079.856599367242	1686.382622053556	623.7506709374586	1124.582132888368	1697.368221892518	651.5783819135153	1078.623560038696	1764.592015109297	601.5995869163251	1128.423141705698	1773.239831441203	626.7447962953322	1081.000724599287	2002.114221835054	544.1867649130828	1142.862463389543	1952.640010215821	563.0327005751406	1093.447231075304	2018.216182423283	650.9255258620632	1166.493432810337	1968.584813295835	669.2082053764834	1122.090220309318	
2815	18.76	2182.959093911597	967.8055148256717	915.6021222624671	2187.242422611335	30.65520639638691	996.4745485060167	2220.28141738452	48.17502441287565	954.1216767337291	2202.860719539261	78.83110167005997	1003.943852368053	2123.959186617534	1035.561190096907	879.1260469193968	2411.861875399825	55.36846752445155	1044.918434514397	2378.105894490914	40.30632747047039	938.3473964658533	2014.764805184142	998.2026479881719	980.7194717721535	2263.488998420169	147.6641321800391	944.8758171480691	2224.043674389978	154.0734879322256	977.1036473794007	2260.332157529765	224.2046569546028	921.2780608477175	2222.483591529221	235.8036009342578	957.0047090458545	2237.740916109378	616.7031461079355	853.0760780307386	2185.492939866757	584.4446538404143	892.0413096741078	2171.896290478195	705.0423619772865	840.9990235762599	2123.833260502596	675.8423063347984	881.0063571782611	2188.070060099818	931.4310030200384	1138.626646403321	2489606221.616989	-2222602022.383976	-231986614.3127298	1622.321023963572	753.2563587148093	1079.739068061791	1616.309065116165	719.9317345001162	1120.63613886359	1653.007877006194	713.6912588421906	1078.596762185602	2151.243031054253	1006.838911711092	1166.136419472683	1491.697027720066	569.2284917852885	1036.073766903089	1504.498878353884	598.2224532655415	1141.259233263732	2021.612770276283	986.3975053760839	1082.395346705987	1709.372070056515	626.6326021342379	1125.297739119978	1721.298141628223	653.3917688193378	1078.952045861856	1786.449585320553	600.7749050625306	1128.792742575919	1795.843183218227	624.9908323117743	1081.157277056303	2011.970116058397	535.0960250892058	1143.895621159789	1962.128744889332	552.251816075964	1094.361168265322	2024.623800995937	642.5203139391604	1166.57862173212	1974.537023090381	658.8009802569778	1122.031038914016	
2816	18.76666666666667	2178.62586270684	963.4642028806762	913.4269799838218	2157.759221516504	32.50118598177504	997.2486395834983	2191.148352322278	49.84462198457324	955.071249176575	2174.991008544022	80.40748313779721	1005.564322339951	2118.994198509237	1028.615562618363	879.9934881519679	2383.930679295522	51.01636422925414	1045.877008654517	2349.244733902879	38.90927727946934	938.9179549044389	2010.897182869246	993.1365050584177	984.0818616704255	2241.171490148212	147.1657371428959	946.1568603271493	2201.648908739398	156.0398586820398	977.7788159088904	2242.502684830289	223.6780495976919	922.0348075062456	2204.810254372401	237.6231260727417	957.2263999536963	2231.181859671595	612.9621363381157	852.9174928355776	2180.139127548422	581.2908730157656	893.7968788519488	2164.893519954563	701.000498800263	841.0936403794801	2117.975984954389	672.4201864323128	882.8636909513799	2187.676303331457	925.2008932848499	1136.834911308269	2493077319.76411	-2225703519.254031	-232311206.7544709	1649.689337582217	757.5235080913	1079.395619831467	1643.228266087804	724.9312247810243	1120.70833664306	1679.239526452524	717.104457727776	1078.382212803846	2152.769308050123	1000.117534830485	1166.249166902805	1513.163411958621	577.0647664827228	1039.212851529164	1528.243707865768	606.842123444808	1143.729016828882	2019.90282564115	980.9677550847094	1084.834008846626	1733.010628760102	628.3332050656659	1125.767066726025	1745.684286510882	653.9488847054679	1078.998099442805	1808.941238245623	599.1914298457569	1128.983713257051	1818.901412391358	622.3871971117613	1081.117674858193	2022.962582627799	526.6196772905458	1145.312570457057	1972.614867783414	542.2317070902847	1095.767969416921	2031.790614558261	634.6419669661135	1167.049483785072	1981.157831262079	648.6562052169543	1122.445884169147	
2817	18.77333333333333	2173.939214553501	959.7902822295721	911.1832677177697	2128.107823777314	34.10478070883156	997.7578768922203	2161.787459379908	51.44814007575249	955.7778174940706	2146.454224444482	81.79240358713622	1006.743529459998	2113.464037117389	1022.168017922473	880.9549265050442	2355.085422674972	48.30495010338939	1046.830204076471	2319.943793062329	38.5663498812265	939.5678087399339	2006.97767282839	988.7243965089114	987.3398021208834	2218.024134752915	147.1491169317826	947.0880287556121	2178.475304880461	158.4145209116594	978.0235508460859	2223.811282375758	223.4714276122498	922.4599930667231	2186.289845990248	239.6482978022008	957.0542830383795	2223.705188940876	609.0457108448996	852.7712750342247	2173.845715179851	578.2027607826165	895.7167717239993	2157.356428723656	697.0701811383776	841.2991639167373	2111.541610902193	669.3050448701593	884.894490844419	2186.778785214454	919.6036194867534	1135.023962407878	2496551642.75898	-2228807900.053455	-232636101.8278442	1676.586780259096	760.2269013970651	1078.57034846616	1669.998194133502	728.4155011419372	1120.394583743411	1705.26576779136	719.1590663643613	1077.731118134393	2153.564159830624	994.3521514175175	1166.26682326329	1535.408234211353	582.401629961305	1042.429309300769	1552.765016126687	613.2030970704252	1146.173342310404	2017.950603111829	976.490482887249	1087.115777022653	1757.089439671091	628.9610023660086	1126.048269948943	1770.320786460655	653.4386698083803	1078.85537937105	1831.938025165194	597.0099710860011	1129.060571410793	1842.292238824677	619.16642311235	1080.962139076473	2035.256762831192	518.941459108718	1147.060967290296	1984.233322654399	533.21150409406	1097.617689429007	2039.834230088876	627.4137941791914	1167.91860443727	1988.57592814115	638.8852129589459	1123.37954992382	
2818	18.78	2169.044417463916	956.8154812740046	908.9401220035971	2098.471861779663	35.39676013026361	998.057852561951	2132.383723481039	52.86330498206701	956.2734376912903	2117.488071069798	82.91938724142338	1007.527890204641	2107.469124002093	1016.41945027057	881.9629673815084	2325.654542282425	46.94469018368394	1047.67239645292	2290.409358547675	38.94918695036036	940.215141135829	2003.116550229173	985.0504113726511	990.3789980703652	2194.162795857327	147.3487902379651	947.6769369705761	2154.662312705494	160.8759742537929	977.8927149930904	2204.246667221678	223.3165613402032	922.5683324908625	2166.932527087381	241.560335527122	956.5384422511756	2215.270862792185	604.956763480639	852.623000712972	2166.438859472298	575.1603987605686	897.5965728479356	2149.346830483699	693.3176605557212	841.5787988195622	2104.495612433351	666.5436240608757	886.9309153686401	2185.409157162076	914.7727645297117	1133.299860404694	2500029192.098932	-2231915166.122427	-232961299.673856	1702.603157200742	761.5780525776944	1077.478773135827	1696.233860275296	730.5043660295255	1119.841012827113	1730.711386498971	720.0728535942292	1076.785246152629	2153.437968410394	989.6276156818567	1166.270840305955	1558.148704854982	585.2972035820352	1045.661648044771	1577.742570056258	617.243305668878	1148.576182889657	2015.798188664641	972.9640985032074	1089.177426923967	1781.362978343113	628.6535220833492	1126.20015162005	1794.973859108739	652.0782158964059	1078.61494069709	1855.271951228935	594.4210034957052	1129.083813409684	1865.864937134576	615.5909326212632	1080.765278755463	2048.934765391741	512.2721260629683	1149.074090184677	1997.066276320068	525.4163004295452	1099.816122024702	2048.803343429995	620.9810911531999	1169.161567622415	1996.875727526332	629.6270702521666	1124.820825416234	
